<svg xmlns="http://www.w3.org/2000/svg" xmlns:xlink="http://www.w3.org/1999/xlink" version="1.1" x="0px" y="0px" viewBox="0 0 66 82.5" enable-background="new 0 0 66 66" xml:space="preserve"><g fill="#54A5F6"><g fill="#54A5F6"><g fill="#54A5F6"><path d="M53.196,22.878c0,0.96-0.776,1.736-1.726,1.736c-0.941,0-1.716-0.776-1.716-1.736     c0-0.95,0.776-1.716,1.716-1.716C52.42,21.161,53.196,21.927,53.196,22.878z"/><path d="M64.027,22.083h-3.462c-0.533-1.687-1.27-3.316-2.221-4.858c0.64-6.342-2.385-12.615-7.767-16.067     c-0.271-0.175-0.601-0.204-0.892-0.087c-0.291,0.126-0.504,0.378-0.572,0.679L47.698,7.79c-3.801-1.813-8.058-2.773-12.392-2.773     c-14.147,0-25.706,10.036-26.2,22.545c-2.35-0.181-4.201,0.614-5.585-2.007c-0.892-1.707-0.747-3.248,0.368-3.937     c0.956-0.589,1.583-0.271,1.978,0.756c0.475,1.306-0.032,1.499-0.562,1.561c-0.533,0.048-0.921,0.514-0.873,1.047     c0.048,0.533,0.524,0.931,1.057,0.882c2.216-0.216,2.956-2.116,2.191-4.17c-0.88-2.348-2.967-2.877-4.81-1.726     c-2.017,1.241-2.444,3.85-1.067,6.487c1.836,3.499,4.406,2.901,7.302,3.045c0.048,1.047,0.184,2.085,0.388,3.113     c1.716-1.357,3.879-2.172,6.235-2.172c5.527,0,10.026,4.499,10.026,10.026v4.645c1.736,0.737,2.948,2.453,2.948,4.451v5.585     h1.367c0.533,0,0.97-0.436,0.97-0.97v-2.686c2.793,0.407,5.74,0.407,8.533,0v2.686c0,0.533,0.436,0.97,0.97,0.97h9.697     c0.533,0,0.97-0.436,0.97-0.97v-7.166c4.538-3.084,7.825-7.399,9.357-12.276h3.462c0.533,0,0.97-0.436,0.97-0.97V23.052     C64.997,22.519,64.561,22.083,64.027,22.083z M51.47,26.553c-2.017,0-3.656-1.648-3.656-3.675c0-2.017,1.639-3.656,3.656-3.656     c2.027,0,3.665,1.639,3.665,3.656C55.135,24.904,53.497,26.553,51.47,26.553z"/></g></g><path d="M23.854,46.654h-0.039v-6.186c0-4.461-3.627-8.087-8.087-8.087c-4.46,0-8.087,3.627-8.087,8.087v6.186   H7.602c-1.6,0-2.909,1.309-2.909,2.909v12.528c0,1.6,1.309,2.909,2.909,2.909h16.252c1.61,0,2.909-1.309,2.909-2.909V49.563   C26.763,47.963,25.464,46.654,23.854,46.654z M16.698,57.223c0,0.533-0.436,0.97-0.97,0.97s-0.97-0.436-0.97-0.97V54.44   c0-0.533,0.436-0.97,0.97-0.97s0.97,0.436,0.97,0.97V57.223z M21.876,46.654H9.58v-6.186c0-3.384,2.764-6.148,6.148-6.148   c3.394,0,6.148,2.764,6.148,6.148V46.654z"/></g></svg>