<svg xmlns="http://www.w3.org/2000/svg" xmlns:xlink="http://www.w3.org/1999/xlink" version="1.1" x="0px" y="0px" viewBox="0 0 512 640" enable-background="new 0 0 512 512" xml:space="preserve"><g fill="#54A5F6"><path d="M207.2,366c19.8-16.5,32.4-41.4,32.4-69.1c0-49.7-40.4-90.1-90.1-90.1c-49.7,0-90.1,40.4-90.1,90.1   c0,27.7,12.6,52.6,32.4,69.1C42.4,387,0.2,435.5,2.1,509.9h294.8C296.9,509.9,305.1,409.1,207.2,366z M75.8,296.9   c0-40.6,33.1-73.7,73.7-73.7s73.7,33.1,73.7,73.7c0,40.6-33.1,73.7-73.7,73.7S75.8,337.6,75.8,296.9z M18.7,493.5   c3.3-53.5,38.6-99.5,90-116.3c12.3,6.3,26.1,9.9,40.8,9.9c14.7,0,28.6-3.6,40.8-9.9c51.4,16.8,86.7,62.9,90,116.3H18.7z"/><path d="M426.1,349.7c18.3-15.6,30-38.8,30-64.6c0-46.9-38.1-85-85-85c-46.9,0-85,38.1-85,85c0,25.9,11.7,49.1,30,64.7   c-20.6,8.9-38.8,22.6-53.1,40.3l12.7,10.3c14.9-18.5,34.6-32.1,57-39.5c11.5,5.8,24.5,9.2,38.3,9.2c13.8,0,26.8-3.4,38.3-9.2   c47.7,15.7,80.5,58.5,83.8,108H305.1v16.4h204.7C512,450,498.7,382.4,426.1,349.7z M302.4,285.1c0-37.8,30.8-68.6,68.6-68.6   c37.8,0,68.6,30.8,68.6,68.6c0,37.8-30.8,68.6-68.6,68.6C333.2,353.7,302.4,322.9,302.4,285.1z"/><path d="M75.8,149.5h4.1l28.7,38.2l28.7-38.2h48c14.6,25.3,41.2,40.9,70.7,40.9c12.3,0,24.5-2.8,35.6-8.1l39.3,10.7l-0.1-51.3   c4.7-10.5,7.1-21.7,7.1-33.1c0-43.5-34.1-79.1-77-81.6C254.5,12.4,240,2.1,223.2,2.1H75.8c-22.6,0-40.9,18.4-40.9,40.9v65.5   C34.8,131.2,53.2,149.5,75.8,149.5z M264.1,108.6V43.7c32.3,4.1,57.3,31.6,57.3,64.9c0,16.2-7.1,29.5-7.1,29.5l0,33.5l-24.8-6.7   c0,0-15.1,9.2-33.7,9.2c-20.2,0-38.7-9.2-51-24.6h18.2C245.7,149.5,264.1,131.2,264.1,108.6z M51.2,43.1c0-13.5,11-24.6,24.6-24.6   h147.4c13.5,0,24.6,11,24.6,24.6v65.5c0,13.5-11,24.6-24.6,24.6H129l-20.5,27.3L88,133.2H75.8c-13.5,0-24.6-11-24.6-24.6V43.1z"/><rect x="75.8" y="43.1" width="147.4" height="16.4"/><rect x="141.3" y="92.2" width="16.4" height="16.4"/><rect x="174" y="92.2" width="16.4" height="16.4"/><rect x="108.5" y="92.2" width="16.4" height="16.4"/></g></svg>